<svg width="282" height="284" viewBox="0 0 282 284" fill="none" xmlns="http://www.w3.org/2000/svg">
<g filter="url(#filter0_d)">
<ellipse cx="141.28" cy="137.839" rx="136.72" ry="137.839" fill="#63C29D"/>
<mask id="mask0" mask-type="alpha" maskUnits="userSpaceOnUse" x="4" y="0" width="274" height="276">
<ellipse cx="140.72" cy="137.839" rx="136.72" ry="137.839" fill="#00C39D"/>
</mask>
<g mask="url(#mask0)">
<path opacity="0.8" d="M52.9285 162.443L117.794 117.429L201.392 93.6633L302.288 237.916L168.587 333.881L52.9285 162.443Z" fill="#005141" fill-opacity="0.8"/>
</g>
<g clip-path="url(#clip0)">
<path fill-rule="evenodd" clip-rule="evenodd" d="M95.7166 93.6117V117.97L53.2082 145.101V162.795L95.7166 189.925V205.979C95.7166 209.108 96.9606 212.109 99.1751 214.32C101.389 216.533 104.393 217.776 107.524 217.776H189.637C192.768 217.776 195.772 216.533 197.986 214.32C200.201 212.109 201.444 209.108 201.444 205.979V93.6117H95.7166ZM74.6159 153.629L95.7166 140.902V166.959L74.6159 153.629ZM187.558 149.147V157.793L158.298 176.431V164.953L177.108 153.618V153.323L158.298 141.987V130.509L187.558 149.147ZM112.413 184.004H123.04L147.671 119.162H137.044L112.413 184.004Z" fill="white"/>
<path d="M128.578 72.4499C128.578 74.2075 130.609 75.9887 133.986 77.1682L130.739 84.0571C123.453 80.9547 120.513 76.7672 120.513 72.3201C120.513 66.6581 125.378 64.4994 125.378 60.8545C125.378 59.0261 123.347 57.3157 119.97 56.1361L123.182 49.2001C130.467 52.3497 133.502 56.5372 133.502 60.996C133.502 66.6581 128.578 68.8168 128.578 72.4499Z" fill="white"/>
<path d="M169.315 72.4499C169.315 74.2075 171.346 75.9887 174.712 77.1682L171.476 84.0571C164.19 80.9547 161.215 76.7672 161.215 72.3201C161.215 66.6581 166.08 64.4994 166.08 60.8545C166.08 59.0261 164.049 57.3157 160.672 56.1361L163.919 49.2001C171.204 52.3025 174.18 56.49 174.18 60.996C174.18 66.6581 169.315 68.8168 169.315 72.4499Z" fill="white"/>
<path d="M149.643 61.7863C149.643 63.5321 151.674 65.3251 155.051 66.5047L151.804 73.3817C144.518 70.2794 141.543 66.1036 141.543 61.6448C141.543 55.9827 146.407 53.8241 146.407 50.1791C146.407 48.3625 144.377 46.6404 141 45.4608L144.247 38.5837C151.532 41.6861 154.508 45.8618 154.508 50.3797C154.508 55.9827 149.643 58.1414 149.643 61.7863Z" fill="white"/>
</g>
</g>
<defs>
<filter id="filter0_d" x="0" y="0" width="282" height="283.678" filterUnits="userSpaceOnUse" color-interpolation-filters="sRGB">
<feFlood flood-opacity="0" result="BackgroundImageFix"/>
<feColorMatrix in="SourceAlpha" type="matrix" values="0 0 0 0 0 0 0 0 0 0 0 0 0 0 0 0 0 0 127 0"/>
<feOffset dy="4"/>
<feGaussianBlur stdDeviation="2"/>
<feColorMatrix type="matrix" values="0 0 0 0 0 0 0 0 0 0 0 0 0 0 0 0 0 0 0.25 0"/>
<feBlend mode="normal" in2="BackgroundImageFix" result="effect1_dropShadow"/>
<feBlend mode="normal" in="SourceGraphic" in2="effect1_dropShadow" result="shape"/>
</filter>
<clipPath id="clip0">
<rect width="148.743" height="179.498" fill="white" transform="translate(53.2082 38.5837)"/>
</clipPath>
</defs>
</svg>
