<svg width="126" height="128" viewBox="0 0 126 128" fill="none" xmlns="http://www.w3.org/2000/svg">
<rect width="126" height="127.518" rx="63" fill="#00C39D"/>
<mask id="mask0" mask-type="alpha" maskUnits="userSpaceOnUse" x="0" y="0" width="126" height="128">
<rect width="126" height="127.518" rx="63" fill="#00C39D"/>
</mask>
<g mask="url(#mask0)">
<path opacity="0.8" d="M19.4211 73.2414L51.2953 50.4865L92.8421 38.9987L131.262 93.9965L64.608 142.031L19.4211 73.2414Z" fill="#005141" fill-opacity="0.8"/>
<path fill-rule="evenodd" clip-rule="evenodd" d="M40.3902 38.6687V50.8676L19.2593 64.4549V73.3162L40.3902 86.9033V94.9434C40.3902 96.5101 41.0086 98.0129 42.1094 99.1206C43.2102 100.229 44.7032 100.851 46.2599 100.851H87.0779C88.6347 100.851 90.1276 100.229 91.2285 99.1206C92.3292 98.0129 92.9475 96.5101 92.9475 94.9434V38.6687H40.3902ZM29.901 68.7259L40.3902 62.3519V75.4015L29.901 68.7259ZM86.0448 66.4812V70.8115L71.4995 80.1453V74.3972L80.8501 68.7203V68.5726L71.4995 62.8954V57.1473L86.0448 66.4812ZM48.69 83.9378H53.9729L66.2169 51.4645H60.9342L48.69 83.9378Z" fill="white"/>
<path d="M56.7255 28.0708C56.7255 28.951 57.7352 29.843 59.4139 30.4338L57.7997 33.8838C54.1781 32.3301 52.7167 30.2329 52.7167 28.0058C52.7167 25.1702 55.1348 24.0891 55.1348 22.2637C55.1348 21.3481 54.1254 20.4915 52.4467 19.9008L54.043 16.4272C57.6648 18.0045 59.1732 20.1016 59.1732 22.3346C59.1732 25.1702 56.7255 26.2513 56.7255 28.0708Z" fill="white"/>
<path d="M76.976 28.0708C76.976 28.951 77.9854 29.843 79.6585 30.4338L78.0502 33.8838C74.4284 32.3301 72.9493 30.2329 72.9493 28.0058C72.9493 25.1702 75.3677 24.0891 75.3677 22.2637C75.3677 21.3481 74.358 20.4915 72.6793 19.9008L74.2935 16.4272C77.915 17.9808 79.3944 20.078 79.3944 22.3346C79.3944 25.1702 76.976 26.2513 76.976 28.0708Z" fill="white"/>
<path d="M67.197 22.7304C67.197 23.6047 68.2066 24.5027 69.8853 25.0934L68.2711 28.5375C64.6496 26.9838 63.1705 24.8925 63.1705 22.6595C63.1705 19.8239 65.5886 18.7429 65.5886 16.9174C65.5886 16.0077 64.5792 15.1452 62.9005 14.5545L64.5145 11.1104C68.1363 12.6641 69.6153 14.7553 69.6153 17.0179C69.6153 19.8239 67.197 20.905 67.197 22.7304Z" fill="white"/>
</g>
</svg>
